<svg width="57" height="67" viewBox="0 0 57 67" fill="none" xmlns="http://www.w3.org/2000/svg">
<path d="M45.2799 32.6134H41.3303C41.1358 31.5588 40.5866 30.6068 39.7777 29.9218C38.9687 29.2368 37.9509 28.8619 36.9 28.8619C35.8491 28.8619 34.8313 29.2368 34.0223 29.9218C33.2134 30.6068 32.6642 31.5588 32.4697 32.6134H24.5275C24.3329 31.5588 23.7837 30.6068 22.9748 29.9218C22.1659 29.2368 21.148 28.8619 20.0971 28.8619C19.0463 28.8619 18.0284 29.2368 17.2195 29.9218C16.4105 30.6068 15.8613 31.5588 15.6668 32.6134H11.7173C11.6181 32.6102 11.5194 32.6274 11.4269 32.664C11.3345 32.7005 11.2501 32.7557 11.1789 32.8262C11.1077 32.8966 11.0511 32.981 11.0124 33.0743C10.9738 33.1675 10.9538 33.2678 10.9538 33.369C10.9538 33.4703 10.9738 33.5705 11.0124 33.6638C11.0511 33.757 11.1077 33.8414 11.1789 33.9119C11.2501 33.9824 11.3345 34.0375 11.4269 34.0741C11.5194 34.1106 11.6181 34.1278 11.7173 34.1247H15.6316C15.7866 35.2204 16.3231 36.2224 17.1426 36.9472C17.9622 37.6719 19.0101 38.0708 20.0943 38.0708C21.1784 38.0708 22.2263 37.6719 23.0459 36.9472C23.8655 36.2224 24.4019 35.2204 24.5569 34.1247H32.4402C32.5952 35.2204 33.1316 36.2224 33.9512 36.9472C34.7708 37.6719 35.8187 38.0708 36.9029 38.0708C37.987 38.0708 39.0349 37.6719 39.8545 36.9472C40.6741 36.2224 41.2105 35.2204 41.3655 34.1247H45.2799C45.379 34.1278 45.4777 34.1106 45.5702 34.0741C45.6627 34.0375 45.747 33.9824 45.8182 33.9119C45.8894 33.8414 45.946 33.757 45.9847 33.6638C46.0234 33.5705 46.0433 33.4703 46.0433 33.369C46.0433 33.2678 46.0234 33.1675 45.9847 33.0743C45.946 32.981 45.8894 32.8966 45.8182 32.8262C45.747 32.7557 45.6627 32.7005 45.5702 32.664C45.4777 32.6274 45.379 32.6102 45.2799 32.6134ZM20.0982 36.5636C19.499 36.5638 18.9131 36.3824 18.4148 36.0426C17.9165 35.7027 17.5281 35.2196 17.2987 34.6543C17.0692 34.089 17.0091 33.4669 17.126 32.8667C17.2428 32.2665 17.5313 31.7152 17.9549 31.2825C18.3786 30.8497 18.9185 30.555 19.5062 30.4356C20.0939 30.3161 20.7031 30.3774 21.2567 30.6115C21.8104 30.8456 22.2836 31.2422 22.6165 31.751C22.9495 32.2597 23.1272 32.8579 23.1272 33.4698C23.1262 34.2899 22.8068 35.0762 22.239 35.6561C21.6712 36.2361 20.9013 36.5625 20.0982 36.5636ZM36.9018 36.5636C36.3025 36.5638 35.7167 36.3824 35.2184 36.0426C34.7201 35.7027 34.3316 35.2196 34.1022 34.6543C33.8728 34.089 33.8127 33.4669 33.9295 32.8667C34.0463 32.2665 34.3348 31.7152 34.7585 31.2825C35.1822 30.8497 35.722 30.555 36.3097 30.4356C36.8975 30.3161 37.5067 30.3774 38.0603 30.6115C38.6139 30.8456 39.0872 31.2422 39.4201 31.751C39.753 32.2597 39.9307 32.8579 39.9307 33.4698C39.9298 34.2899 39.6104 35.0762 39.0426 35.6561C38.4748 36.2361 37.7049 36.5625 36.9018 36.5636ZM39.9659 44.7897C38.8465 46.8987 37.1901 48.6598 35.1716 49.887C33.1532 51.1143 30.8477 51.7621 28.4986 51.7621C26.1494 51.7621 23.8439 51.1143 21.8255 49.887C19.807 48.6598 18.1506 46.8987 17.0312 44.7897C16.9849 44.7025 16.9558 44.6069 16.9456 44.5082C16.9355 44.4095 16.9445 44.3098 16.9721 44.2147C16.9997 44.1195 17.0454 44.0309 17.1065 43.9538C17.1677 43.8767 17.2431 43.8127 17.3285 43.7653C17.4139 43.718 17.5076 43.6883 17.6042 43.6779C17.7008 43.6676 17.7985 43.6768 17.8917 43.705C17.9848 43.7331 18.0716 43.7798 18.1471 43.8422C18.2226 43.9047 18.2853 43.9817 18.3317 44.0689C19.3235 45.9395 20.7918 47.5017 22.5814 48.5904C24.371 49.6791 26.4155 50.2538 28.4986 50.2538C30.5817 50.2538 32.6261 49.6791 34.4157 48.5904C36.2053 47.5017 37.6736 45.9395 38.6654 44.0689C38.7118 43.9817 38.7745 43.9047 38.85 43.8422C38.9255 43.7798 39.0123 43.7331 39.1055 43.705C39.1986 43.6768 39.2963 43.6676 39.3929 43.6779C39.4896 43.6883 39.5832 43.718 39.6686 43.7653C39.754 43.8127 39.8294 43.8767 39.8906 43.9538C39.9517 44.0309 39.9974 44.1195 40.025 44.2147C40.0526 44.3098 40.0616 44.4095 40.0515 44.5082C40.0413 44.6069 40.0123 44.7025 39.9659 44.7897ZM53.7606 27.8279H52.002V25.0149C52.0003 23.68 51.4802 22.4003 50.5558 21.4565C49.6313 20.5126 48.3781 19.9817 47.0708 19.9801H38.4285V17.624C38.4269 16.599 38.0274 15.6163 37.3174 14.8916C36.6075 14.1669 35.645 13.7593 34.6412 13.7581H29.04V8.5517C29.9961 8.36371 30.8492 7.81857 31.4327 7.02273C32.0163 6.22689 32.2884 5.23751 32.196 4.24778C32.1035 3.25805 31.6531 2.33905 30.9327 1.67025C30.2123 1.00145 29.2736 0.630859 28.3 0.630859C27.3264 0.630859 26.3877 1.00145 25.6673 1.67025C24.9469 2.33905 24.4965 3.25805 24.404 4.24778C24.3116 5.23751 24.5837 6.22689 25.1673 7.02273C25.7508 7.81857 26.6039 8.36371 27.56 8.5517V13.7581H21.9653C20.9613 13.7593 19.9987 14.1671 19.2888 14.8922C18.5789 15.6172 18.1797 16.6002 18.1787 17.6255V19.9816H9.92918C8.62201 19.9831 7.3688 20.5141 6.44449 21.458C5.52017 22.4018 5.00022 23.6816 4.9987 25.0164V27.8293H3.23935C2.38064 27.8303 1.55736 28.179 0.950087 28.799C0.342817 29.419 0.00114037 30.2596 0 31.1365V44.6453C0.00114037 45.5222 0.342817 46.3628 0.950087 46.9828C1.55736 47.6028 2.38064 47.9515 3.23935 47.9524H4.9987V54.5331C5.00022 55.868 5.52015 57.1478 6.44444 58.0917C7.36874 59.0357 8.62194 59.5669 9.92918 59.5686H18.6369V65.8749C18.6369 66.0076 18.6711 66.1379 18.7361 66.2528C18.801 66.3677 18.8944 66.4631 19.0069 66.5295C19.1194 66.5958 19.247 66.6308 19.377 66.6309C19.5069 66.6309 19.6345 66.596 19.7471 66.5298L31.5512 59.5708H47.0708C48.3782 59.5692 49.6316 59.0382 50.556 58.0942C51.4805 57.1502 52.0005 55.8703 52.002 54.5353V47.9524H53.7606C54.6194 47.9515 55.4426 47.6028 56.0499 46.9828C56.6572 46.3628 56.9989 45.5222 57 44.6453V31.1372C56.9994 30.26 56.658 29.4188 56.0507 28.7983C55.4433 28.1779 54.6197 27.8288 53.7606 27.8279ZM25.8682 4.62856C25.868 4.13702 26.0106 3.65647 26.278 3.24769C26.5453 2.83892 26.9253 2.52028 27.37 2.33207C27.8147 2.14386 28.304 2.09454 28.7761 2.19035C29.2483 2.28616 29.682 2.52279 30.0224 2.87031C30.3628 3.21783 30.5947 3.66064 30.6886 4.14273C30.7826 4.62482 30.7344 5.12454 30.5503 5.57868C30.3661 6.03283 30.0542 6.42099 29.6539 6.6941C29.2537 6.9672 28.7832 7.11297 28.3018 7.11297C27.6567 7.11239 27.0381 6.85048 26.5818 6.38471C26.1256 5.91894 25.8689 5.28736 25.8682 4.62856ZM19.6551 17.624C19.6557 16.9988 19.8994 16.3995 20.3326 15.9576C20.7658 15.5158 21.353 15.2678 21.9653 15.268H34.6412C35.2529 15.2685 35.8395 15.517 36.272 15.9587C36.7046 16.4004 36.9479 16.9993 36.9485 17.624V19.9801H19.6551V17.624ZM3.23935 46.4426C2.77299 46.4422 2.32582 46.2529 1.99598 45.9162C1.66614 45.5795 1.48058 45.123 1.48001 44.6468V31.1372C1.48058 30.661 1.66614 30.2044 1.99598 29.8678C2.32582 29.5311 2.77299 29.3418 3.23935 29.3414H4.9987V46.4411L3.23935 46.4426ZM50.522 54.5331C50.5209 55.4673 50.1569 56.363 49.5099 57.0235C48.8629 57.6841 47.9857 58.0556 47.0708 58.0565H31.353C31.2232 58.0566 31.0957 58.0915 30.9832 58.1577L20.1169 64.5645V58.8126C20.1169 58.6127 20.0394 58.4209 19.9013 58.2793C19.7632 58.1376 19.5758 58.0575 19.3801 58.0565H9.92918C9.01498 58.0546 8.13881 57.6826 7.4927 57.0222C6.84659 56.3617 6.48325 55.4666 6.4823 54.5331V25.0149C6.4842 24.0814 6.84845 23.1867 7.49524 22.5269C8.14202 21.8671 9.01856 21.4961 9.93277 21.4951H47.0708C47.9857 21.4961 48.8629 21.8676 49.5099 22.5281C50.1569 23.1887 50.5209 24.0843 50.522 25.0186V54.5331ZM55.52 44.6453C55.5194 45.1215 55.3338 45.5781 55.004 45.9148C54.6742 46.2514 54.227 46.4407 53.7606 46.4411H52.002V29.3392H53.7606C54.227 29.3396 54.6742 29.5289 55.004 29.8656C55.3338 30.2022 55.5194 30.6588 55.52 31.135V44.6453Z" fill="white"/>
</svg>
