<svg width="51" height="40" viewBox="0 0 51 40" fill="none" xmlns="http://www.w3.org/2000/svg">
<path d="M50.0947 39.6305V0.663086H0.757812V39.6305H50.0947ZM1.79476 38.539V13.1065H49.0032V38.539H1.79476ZM49.0032 1.75461V12.0149H1.84934V1.75461H49.0032Z" fill="white"/>
<path d="M8.07069 10.0506C8.69675 10.0506 9.30875 9.86492 9.8293 9.5171C10.3499 9.16928 10.7556 8.6749 10.9952 8.0965C11.2347 7.51809 11.2974 6.88163 11.1753 6.2676C11.0532 5.65357 10.7517 5.08955 10.309 4.64686C9.86629 4.20417 9.30227 3.90269 8.68823 3.78055C8.0742 3.65841 7.43774 3.7211 6.85934 3.96068C6.28093 4.20026 5.78656 4.60598 5.43874 5.12653C5.09092 5.64708 4.90527 6.25909 4.90527 6.88515C4.90527 7.72467 5.23877 8.5298 5.8324 9.12344C6.42603 9.71707 7.23117 10.0506 8.07069 10.0506ZM8.07069 4.81125C8.48087 4.81125 8.88184 4.93288 9.22289 5.16077C9.56394 5.38865 9.82975 5.71255 9.98672 6.0915C10.1437 6.47046 10.1848 6.88745 10.1047 7.28974C10.0247 7.69204 9.8272 8.06157 9.53716 8.35161C9.24712 8.64165 8.87759 8.83917 8.47529 8.91919C8.07299 8.99921 7.656 8.95814 7.27705 8.80118C6.89809 8.64421 6.57419 8.37839 6.34631 8.03734C6.11843 7.69629 5.9968 7.29532 5.9968 6.88515C5.9968 6.33512 6.2153 5.80761 6.60423 5.41868C6.99316 5.02975 7.52066 4.81125 8.07069 4.81125Z" fill="white"/>
<path d="M14.8392 10.0506C15.4653 10.0506 16.0773 9.86492 16.5979 9.5171C17.1184 9.16928 17.5241 8.6749 17.7637 8.0965C18.0033 7.51809 18.066 6.88163 17.9438 6.2676C17.8217 5.65357 17.5202 5.08955 17.0775 4.64686C16.6348 4.20417 16.0708 3.90269 15.4568 3.78055C14.8428 3.65841 14.2063 3.7211 13.6279 3.96068C13.0495 4.20026 12.5551 4.60598 12.2073 5.12653C11.8595 5.64708 11.6738 6.25909 11.6738 6.88515C11.6738 7.72467 12.0073 8.5298 12.601 9.12344C13.1946 9.71707 13.9997 10.0506 14.8392 10.0506ZM14.8392 4.81125C15.2494 4.81125 15.6504 4.93288 15.9914 5.16077C16.3325 5.38865 16.5983 5.71255 16.7553 6.0915C16.9122 6.47046 16.9533 6.88745 16.8733 7.28974C16.7933 7.69204 16.5958 8.06157 16.3057 8.35161C16.0157 8.64165 15.6461 8.83917 15.2438 8.91919C14.8415 8.99921 14.4246 8.95814 14.0456 8.80118C13.6666 8.64421 13.3427 8.37839 13.1149 8.03734C12.887 7.69629 12.7654 7.29532 12.7654 6.88515C12.7654 6.33512 12.9839 5.80761 13.3728 5.41868C13.7617 5.02975 14.2892 4.81125 14.8392 4.81125Z" fill="white"/>
<path d="M21.933 10.0506C22.5591 10.0506 23.1711 9.86492 23.6916 9.5171C24.2122 9.16928 24.6179 8.6749 24.8575 8.0965C25.097 7.51809 25.1597 6.88163 25.0376 6.2676C24.9155 5.65357 24.614 5.08955 24.1713 4.64686C23.7286 4.20417 23.1646 3.90269 22.5505 3.78055C21.9365 3.65841 21.3 3.7211 20.7216 3.96068C20.1432 4.20026 19.6489 4.60598 19.301 5.12653C18.9532 5.64708 18.7676 6.25909 18.7676 6.88515C18.7676 7.72467 19.1011 8.5298 19.6947 9.12344C20.2883 9.71707 21.0935 10.0506 21.933 10.0506ZM21.933 4.81125C22.3432 4.81125 22.7441 4.93288 23.0852 5.16077C23.4262 5.38865 23.6921 5.71255 23.849 6.0915C24.006 6.47046 24.0471 6.88745 23.967 7.28974C23.887 7.69204 23.6895 8.06157 23.3995 8.35161C23.1094 8.64165 22.7399 8.83917 22.3376 8.91919C21.9353 8.99921 21.5183 8.95814 21.1394 8.80118C20.7604 8.64421 20.4365 8.37839 20.2086 8.03734C19.9807 7.69629 19.8591 7.29532 19.8591 6.88515C19.8591 6.33512 20.0776 5.80761 20.4665 5.41868C20.8555 5.02975 21.383 4.81125 21.933 4.81125Z" fill="white"/>
<path d="M18.7137 19.5464L11.9463 25.8772L18.7137 32.1535L19.4778 31.3348L13.529 25.8772L19.4778 20.365L18.7137 19.5464Z" fill="white"/>
<path d="M31.375 20.365L37.3238 25.8772L31.375 31.3348L32.1391 32.1535L38.9065 25.8772L32.1391 19.5464L31.375 20.365Z" fill="white"/>
<path d="M27.0573 16.3481L22.2119 35.2197L23.2691 35.4912L28.1145 16.6196L27.0573 16.3481Z" fill="white"/>
</svg>
