<svg width="28" height="28" viewBox="0 0 28 28" fill="none" xmlns="http://www.w3.org/2000/svg">
<path d="M26.7559 0.320801H1.91594C1.31856 0.320801 0.835938 0.803426 0.835938 1.4008V26.2408C0.835938 26.8382 1.31856 27.3208 1.91594 27.3208H26.7559C27.3533 27.3208 27.8359 26.8382 27.8359 26.2408V1.4008C27.8359 0.803426 27.3533 0.320801 26.7559 0.320801ZM8.84481 23.3282H4.83869V10.4424H8.84481V23.3282ZM6.84344 8.68068C6.38419 8.68068 5.93525 8.54449 5.5534 8.28935C5.17155 8.0342 4.87394 7.67156 4.69819 7.24727C4.52244 6.82298 4.47646 6.3561 4.56605 5.90568C4.65565 5.45525 4.8768 5.04151 5.20154 4.71677C5.52627 4.39204 5.94001 4.17089 6.39044 4.08129C6.84086 3.9917 7.30774 4.03768 7.73203 4.21343C8.15632 4.38917 8.51897 4.68679 8.77411 5.06864C9.02925 5.45049 9.16544 5.89943 9.16544 6.35868C9.16206 7.64118 8.12256 8.68068 6.84344 8.68068ZM23.8433 23.3282H19.8406V17.0608C19.8406 15.5657 19.8136 13.6453 17.7582 13.6453C15.6758 13.6453 15.3552 15.2721 15.3552 16.9528V23.3282H11.3558V10.4424H15.1966V12.2042H15.2506C15.7838 11.1917 17.0899 10.1218 19.0407 10.1218C23.0974 10.1218 23.8433 12.7914 23.8433 16.2609V23.3282Z" fill="#2D2C2C"/>
</svg>
