<svg width="49" height="58" viewBox="0 0 49 58" fill="none" xmlns="http://www.w3.org/2000/svg">
<path d="M26.467 28.2544L14.0062 40.6596C13.8276 40.8373 13.5875 40.9292 13.3536 40.9292C13.1196 40.9292 12.8795 40.8373 12.701 40.6596L7.97889 35.9586C7.61565 35.597 7.61565 35.0147 7.97889 34.6592C8.34213 34.2976 8.927 34.2976 9.28408 34.6592L13.3536 38.7105L25.1618 26.9551C25.5251 26.5934 26.1099 26.5934 26.467 26.9551C26.8303 27.3167 26.8303 27.8989 26.467 28.2544ZM49 45.6731C49 49.0318 47.6025 52.0657 45.3553 54.2354C45.0598 54.5173 44.752 54.787 44.4318 55.0383C44.1363 55.2712 43.8285 55.4918 43.5084 55.7002C41.6244 56.9199 39.3896 57.6309 36.9824 57.6309C34.5752 57.6309 32.3835 56.926 30.5119 55.7309C30.1917 55.5286 29.8839 55.308 29.5884 55.0751C29.2682 54.8238 28.9604 54.5602 28.6649 54.2783C27.6675 53.3222 26.8364 52.1944 26.2146 50.9441H3.37995C1.51451 50.9441 0 49.4363 0 47.5792V20.0109C0 18.1538 1.51451 16.646 3.37995 16.646H6.92612V8.30441C6.92612 4.07538 10.3861 0.630859 14.6341 0.630859H19.8241C24.0721 0.630859 27.5321 4.07538 27.5321 8.30441V11.2525C27.5321 11.7612 27.1196 12.1718 26.6086 12.1718C26.0976 12.1718 25.6851 11.7612 25.6851 11.2525V8.30441C25.6851 5.08667 23.0563 2.46957 19.8241 2.46957H14.6341C11.4019 2.46957 8.77309 5.08667 8.77309 8.30441V16.646H31.0721C32.9376 16.646 34.4521 18.1538 34.4521 20.0109V33.9667C35.2647 33.7951 36.1143 33.697 36.9762 33.697C43.6069 33.697 48.9938 39.066 48.9938 45.6609L49 45.6731ZM37.3949 46.8867C37.715 46.8499 38.0229 46.758 38.3184 46.6292C38.6508 46.4822 38.9648 46.286 39.2419 46.0347C40.1284 45.2563 40.7071 44.0305 40.7071 42.6515V42.2041C40.7071 40.1754 39.051 38.5267 37.0132 38.5267C36.022 38.5267 35.1231 38.9189 34.4582 39.5563C33.7564 40.2244 33.3193 41.1622 33.3193 42.2041V42.6515C33.3193 43.8528 33.7564 44.9438 34.4582 45.716C34.5629 45.8325 34.6737 45.9367 34.7845 46.0347C35.0616 46.2799 35.3755 46.4822 35.708 46.6231C36.0035 46.7518 36.3113 46.8438 36.6315 46.8805C36.7546 46.8928 36.8839 46.9051 37.0132 46.9051C37.1425 46.9051 37.2718 46.8989 37.3949 46.8805V46.8867ZM36.6315 48.7805V49.8102C36.6315 49.9512 36.7485 50.0738 36.8962 50.0738H37.1363C37.2779 50.0738 37.4011 49.9573 37.4011 49.8102V48.7254C37.3025 48.7315 37.1979 48.7376 37.0994 48.7438C37.0748 48.7438 37.044 48.7438 37.0193 48.7438C36.9947 48.7438 36.9639 48.7438 36.9393 48.7438C36.8346 48.7438 36.7361 48.7315 36.6376 48.7254V48.7805H36.6315ZM36.9824 55.7983C39.4635 55.7983 41.7353 54.9096 43.5022 53.4325C43.4653 52.4825 42.8927 51.6734 42.1354 51.5325L38.9033 50.9318C38.5277 51.5202 37.8751 51.9063 37.1302 51.9063H36.8901C36.1451 51.9063 35.4864 51.5141 35.117 50.9318L31.8848 51.5325C31.1152 51.6734 30.5365 52.5131 30.518 53.4815C32.2788 54.928 34.5321 55.7983 36.9886 55.7983H36.9824ZM45.0106 51.8696C46.3465 50.1534 47.153 48.0083 47.153 45.6731C47.153 40.0896 42.591 35.548 36.9824 35.548C36.1082 35.548 35.2647 35.6705 34.4582 35.8789C33.8179 36.0444 33.1961 36.2651 32.6113 36.547C29.1882 38.1773 26.8118 41.6525 26.8118 45.6731C26.8118 46.8867 27.0396 48.0389 27.4336 49.1176C27.6675 49.7612 27.9692 50.3802 28.3263 50.9563C28.5295 51.2873 28.7511 51.6122 28.9974 51.9186C29.139 51.5692 29.3237 51.2444 29.5514 50.9563C30.0563 50.3251 30.7458 49.8715 31.5523 49.7244L34.0088 49.2709L34.7907 49.1238V48.2228C34.6675 48.1615 34.5506 48.1002 34.4336 48.0328C33.7194 47.616 33.1038 47.0338 32.6174 46.3289C31.9094 45.3054 31.4785 44.0305 31.4785 42.6454V42.198C31.4785 40.9476 31.9033 39.7892 32.6174 38.8638C33.1099 38.2202 33.7379 37.687 34.4644 37.307C35.2278 36.9086 36.0959 36.6818 37.0193 36.6818C40.073 36.6818 42.5602 39.158 42.5602 42.198V42.6454C42.5602 45.1338 41.1996 47.2728 39.248 48.2228V49.1238L42.4864 49.7244C43.6315 49.9389 44.5488 50.7663 45.0229 51.8696H45.0106ZM25.4758 49.1176C25.1434 48.0267 24.9648 46.8683 24.9648 45.6731C24.9648 40.6105 28.1416 36.2834 32.6113 34.5428V20.0292C32.6113 19.1834 31.9217 18.5031 31.0783 18.5031H3.37995C2.53034 18.5031 1.84697 19.1896 1.84697 20.0292V47.5976C1.84697 48.4434 2.5365 49.1238 3.37995 49.1238H25.4758V49.1176Z" fill="white"/>
</svg>
