<svg width="54" height="47" viewBox="0 0 54 47" fill="none" xmlns="http://www.w3.org/2000/svg">
<path d="M42.182 32.228C39.9831 32.228 38.1943 34.0185 38.1943 36.2174C38.1943 37.262 38.6061 38.2509 39.3419 38.9934L38.9352 41.7998C38.8677 42.2572 38.9959 42.7145 39.2896 43.052C39.5832 43.3895 40.0152 43.5836 40.4759 43.5836H43.8932C44.3539 43.5836 44.7876 43.3895 45.0796 43.0503C45.3732 42.7111 45.5014 42.2538 45.4323 41.8015L45.0239 38.9934C45.7596 38.2543 46.1714 37.2671 46.1714 36.2174C46.1697 34.0185 44.3809 32.228 42.182 32.228ZM43.6418 38.0383L43.2722 38.3319L43.8932 42.0361H40.5535L41.0868 38.3319L40.7206 38.0416C40.1536 37.586 39.8296 36.9245 39.8296 36.2191C39.8296 34.9197 40.8843 33.865 42.182 33.865C43.4781 33.865 44.5328 34.9197 44.5328 36.2191C44.5328 36.9279 44.2088 37.5894 43.6418 38.0383Z" fill="white"/>
<path d="M50.6502 28.3523V24.0322C50.6502 21.9126 49.3457 20.3145 47.3342 19.7205V10.1655V8.52861V5.32732C47.3342 2.73693 45.2247 0.630859 42.6343 0.630859H4.69477C2.10607 0.630859 0 2.73693 0 5.32732V8.52861V10.1655V28.327C0 30.9157 2.10607 33.0217 4.69477 33.0217H30.3624V42.9581C30.3624 45.0726 32.0838 46.7922 34.1949 46.7922H50.1659C52.2804 46.7922 54 45.0709 54 42.9581V32.1358C54.0017 30.185 52.5352 28.5902 50.6502 28.3523ZM49.0116 24.0322V28.3034H35.3525V24.0322C35.3525 22.002 37.0924 21.0924 38.8154 21.0924H45.5572C47.2785 21.0924 49.0116 22.002 49.0116 24.0322ZM1.63693 5.32732C1.63693 3.63977 3.00891 2.26779 4.69646 2.26779H42.6343C44.3236 2.26779 45.6955 3.63977 45.6955 5.32732V8.52861H1.63693V5.32732ZM30.4384 31.3831H4.69477C3.00891 31.3831 1.63524 30.0112 1.63524 28.3253V10.1655H45.6939V19.4673C45.6483 19.4673 45.6027 19.4572 45.5555 19.4572H38.8137C35.8132 19.4572 33.7156 21.3388 33.7156 24.0322V28.3523C32.0804 28.5599 30.759 29.7867 30.4384 31.3831ZM52.3648 42.9581C52.3648 44.1697 51.3775 45.1553 50.1659 45.1553H34.1949C32.9849 45.1553 31.9977 44.1697 31.9977 42.9581V32.1358C31.9977 30.9241 32.9849 29.9386 34.1983 29.9386H50.1676C51.3792 29.9386 52.3648 30.9241 52.3648 32.1358V42.9581Z" fill="white"/>
<path d="M18.0414 18.5908H7.35243C5.97201 18.5908 4.84473 19.7164 4.84473 21.0968V26.1612C4.84473 27.5433 5.97201 28.6655 7.35243 28.6655H18.0414C19.4218 28.6655 20.5457 27.5433 20.5457 26.1612V21.0968C20.5474 19.7164 19.4235 18.5908 18.0414 18.5908ZM18.9088 26.1629C18.9088 26.6421 18.5207 27.032 18.0414 27.032H7.35243C6.87148 27.032 6.47997 26.6438 6.47997 26.1629V21.0985C6.47997 20.6193 6.86979 20.2277 7.35243 20.2277H18.0414C18.519 20.2277 18.9088 20.6176 18.9088 21.0985V26.1629Z" fill="white"/>
</svg>
