<svg width="52" height="64" viewBox="0 0 52 64" fill="none" xmlns="http://www.w3.org/2000/svg">
<path d="M27.5254 15.9307C27.5254 17.1307 27.9254 18.3307 28.7254 19.2307C29.5254 20.1307 30.7254 20.6307 31.9254 20.7307C32.0254 20.7307 32.0254 20.7307 32.1254 20.7307C34.6254 20.7307 36.6254 18.7307 36.7254 16.2307C36.8254 13.7307 34.8254 11.5307 32.2254 11.4307C29.7254 11.4307 27.6254 13.4307 27.5254 15.9307ZM35.7254 16.2307C35.6254 18.2307 33.9254 19.8307 31.9254 19.7307C30.9254 19.7307 30.0254 19.3307 29.4254 18.5307C28.7254 17.8307 28.4254 16.9307 28.4254 15.9307C28.5254 13.9307 30.1254 12.4307 32.0254 12.4307H32.1254C34.2254 12.5307 35.8254 14.2307 35.7254 16.2307Z" fill="white"/>
<path d="M43.5254 2.43086C42.8254 1.73086 41.8254 1.23086 40.7254 1.23086C35.4254 1.03086 30.0254 0.830859 24.6254 0.630859C24.3254 0.630859 23.9254 0.630859 23.6254 0.730859C21.8254 1.13086 20.6254 2.53086 20.5254 4.53086C20.4254 8.03086 20.3254 10.9309 20.2254 13.9309L20.0254 18.5309L19.5254 28.7309C19.5254 29.4309 20.0254 30.0309 20.7254 30.0309C21.4254 30.0309 22.0254 29.5309 22.0254 28.8309L22.7254 14.0309C22.8254 11.0309 22.9254 8.13086 23.0254 4.63086C23.0254 3.83086 23.4254 3.33086 24.1254 3.13086C24.2254 3.13086 24.4254 3.13086 24.5254 3.13086C29.9254 3.33086 35.3254 3.53086 40.6254 3.73086C41.1254 3.73086 41.4254 3.93086 41.7254 4.13086C42.0254 4.33086 42.1254 4.73086 42.0254 5.23086L41.5254 20.2309L41.1254 28.7309C41.1254 29.4309 41.6254 30.0309 42.3254 30.0309C42.3254 30.0309 42.3254 30.0309 42.4254 30.0309C43.1254 30.0309 43.6254 29.5309 43.6254 28.8309L44.0254 21.4309L44.1254 19.6309L44.6254 5.33086C44.6254 4.23086 44.2254 3.23086 43.5254 2.43086Z" fill="white"/>
<path d="M13.9247 7.43098C14.0247 7.33098 14.1247 7.33098 14.3247 7.23098L17.1247 6.43098C17.8247 6.23098 18.2247 5.53098 18.0247 4.93098C17.8247 4.23098 17.1247 3.83098 16.5247 4.03098L13.7247 4.83098C13.5247 4.93098 13.1247 5.03098 12.7247 5.23098C11.1247 6.13098 10.4247 7.93098 10.9247 9.83098C12.0247 13.631 14.2247 23.331 15.2247 28.031C15.5247 29.531 15.8247 30.631 15.8247 30.731C15.9247 31.331 16.5247 31.631 17.0247 31.631C17.1247 31.631 17.2247 31.631 17.3247 31.631C18.0247 31.431 18.4247 30.731 18.2247 30.131C18.2247 29.931 17.9247 28.931 17.6247 27.431C16.5247 22.731 14.3247 12.931 13.3247 9.13098C13.1247 8.33098 13.3247 7.73098 13.9247 7.43098Z" fill="white"/>
<path d="M10.525 37.5311C10.425 36.8311 9.825 36.3311 9.125 36.4311L2.525 37.2311C1.725 37.3311 1.025 37.7311 0.625 38.3311C0.125 38.9311 -0.075 39.6311 0.025 40.4311L2.425 60.0311C2.625 61.4311 3.825 62.5311 5.225 62.5311C5.325 62.5311 5.425 62.5311 5.525 62.5311L12.125 61.7311C12.425 61.7311 12.725 61.5311 12.925 61.3311H13.025C14.525 61.3311 16.025 61.4311 17.525 61.5311C18.525 61.6311 19.525 62.0311 20.625 62.4311C21.425 62.7311 22.325 63.0311 23.225 63.2311C24.925 63.6311 26.825 63.8311 29.025 63.8311C29.425 63.8311 29.825 63.8311 30.225 63.8311C31.425 63.8311 32.725 63.7311 34.225 63.5311C34.925 63.4311 35.425 62.8311 35.325 62.1311C35.225 61.4311 34.625 60.9311 33.925 61.0311C32.525 61.2311 31.325 61.3311 30.225 61.3311C27.725 61.4311 25.725 61.2311 23.925 60.8311C23.125 60.6311 22.425 60.3311 21.625 60.1311C20.425 59.7311 19.225 59.2311 17.925 59.1311C16.325 58.9311 14.625 58.9311 13.125 58.8311C12.625 58.8311 12.125 58.4311 12.025 57.8311L10.125 42.3311C10.025 41.8311 10.325 41.3311 10.825 41.1311C12.125 40.5311 13.325 39.9311 14.425 39.1311C15.125 38.6311 15.925 38.1311 16.725 37.4311C19.825 35.1311 24.025 32.0311 27.025 31.2311C29.525 30.5311 31.925 31.3311 34.425 32.1311C35.825 32.5311 37.225 33.0311 38.725 33.3311C38.925 33.3311 39.125 33.4311 39.325 33.4311C40.025 33.5311 41.525 33.7311 41.625 34.2311C41.625 34.7311 41.525 35.1311 41.225 35.4311C40.525 36.1311 38.925 36.6311 36.725 36.7311C35.325 36.7311 33.925 36.6311 32.525 36.4311C32.425 36.4311 32.325 36.3311 32.125 36.3311C31.525 36.1311 30.925 35.9311 30.325 36.0311C30.025 36.1311 29.825 36.2311 29.525 36.3311C28.425 37.0311 28.225 38.2311 28.025 39.1311C27.925 39.4311 27.925 39.7311 27.825 39.8311C27.425 40.9311 26.725 42.1311 26.025 43.1311C25.225 44.1311 23.125 46.6311 20.925 47.2311C20.225 47.4311 19.925 48.1311 20.125 48.8311C20.325 49.5311 21.025 49.8311 21.725 49.6311C24.425 48.8311 26.825 46.1311 28.025 44.6311C28.925 43.4311 29.725 42.0311 30.225 40.6311C30.325 40.2311 30.425 39.9311 30.525 39.5311C30.625 39.1311 30.725 38.5311 30.825 38.3311C31.025 38.3311 31.225 38.4311 31.325 38.5311C31.625 38.6311 31.925 38.7311 32.025 38.7311C33.625 39.0311 35.125 39.1311 36.725 39.1311C39.725 39.0311 41.825 38.3311 43.025 37.0311C43.725 36.2311 44.125 35.1311 44.125 34.0311C44.025 31.5311 41.125 31.1311 39.725 30.9311C39.525 30.9311 39.325 30.9311 39.225 30.8311C37.925 30.6311 36.625 30.2311 35.225 29.7311C32.425 28.8311 29.625 27.9311 26.425 28.7311C23.025 29.6311 18.725 32.7311 15.225 35.3311C14.425 35.9311 13.625 36.5311 12.925 36.9311C12.025 37.5311 11.025 38.1311 9.925 38.6311C10.325 38.4311 10.525 38.0311 10.525 37.5311ZM7.625 42.5311L9.525 58.0311C9.625 58.5311 9.725 59.0311 10.025 59.4311L5.325 60.0311C5.125 60.0311 5.025 59.9311 4.925 59.7311L2.525 40.1311C2.525 40.0311 2.525 39.9311 2.625 39.9311C2.625 39.9311 2.725 39.8311 2.825 39.8311L9.425 39.0311C9.525 39.0311 9.525 39.0311 9.625 38.9311C8.225 39.5311 7.425 41.0311 7.625 42.5311Z" fill="white"/>
<path d="M47.5253 40.3307C46.6253 39.9307 45.7253 39.9307 44.9253 40.0307C42.1253 40.3307 39.1253 40.8307 36.6253 41.1307L35.6253 41.2307C34.3253 41.4307 33.5253 42.2307 33.2253 43.5307C32.9253 44.8307 33.3253 46.0307 34.1253 46.7307C32.9253 46.9307 32.0253 47.9307 31.8253 49.2307C31.7253 50.2307 31.9253 51.2307 32.5253 51.9307C33.0253 52.5307 33.6253 52.8307 34.4253 52.9307C34.2253 53.2307 34.0253 53.5307 33.9253 53.9307C33.6253 55.0307 33.9253 56.3307 34.6253 57.1307C35.0253 57.5307 35.6253 58.0307 36.7253 58.0307C36.8253 58.0307 36.9253 58.0307 37.0253 58.0307C36.8253 58.2307 36.6253 58.5307 36.5253 58.8307C36.1253 60.0307 36.3253 61.1307 37.0253 62.1307C37.5253 62.8307 38.3253 63.2307 39.2253 63.2307C39.4253 63.2307 39.6253 63.2307 39.9253 63.1307L41.7253 62.8307C42.6253 62.6307 43.5253 62.5307 44.5253 62.3307L44.8253 62.2307C45.7253 62.0307 46.6253 61.8307 47.5253 61.5307C49.0253 61.0307 49.9253 59.3307 49.5253 57.5307C49.4253 57.0307 49.2253 56.4307 48.6253 56.0307C50.2253 55.5307 51.1253 53.9307 50.8253 52.1307C50.7253 51.4307 50.3253 50.8307 49.7253 50.5307C50.7253 50.0307 51.2253 49.0307 51.2253 47.5307C51.3253 46.1307 50.6253 45.2307 49.4253 44.9307C49.2253 44.9307 49.0253 44.8307 48.9253 44.8307C49.2253 44.4307 49.3253 44.0307 49.4253 43.5307C49.4253 42.3307 48.5253 40.8307 47.5253 40.3307ZM34.1253 43.8307C34.3253 42.9307 34.8253 42.4307 35.7253 42.3307L36.7253 42.2307C39.3253 41.8307 42.2253 41.4307 45.0253 41.1307C45.2253 41.1307 45.5253 41.0307 45.8253 41.0307C46.2253 41.0307 46.7253 41.1307 47.1253 41.3307C47.8253 41.7307 48.4253 42.8307 48.4253 43.6307C48.4253 44.0307 48.2253 44.4307 47.9253 44.6307C47.8253 44.7307 47.6253 44.8307 47.4253 44.9307C44.0253 45.4307 40.5253 45.9307 36.0253 46.5307C35.7253 46.5307 35.5253 46.4307 35.3253 46.3307C34.3253 45.9307 33.9253 44.9307 34.1253 43.8307ZM47.2253 60.7307C46.4253 61.0307 45.4253 61.2307 44.6253 61.3307H44.3253C43.4253 61.5307 42.5253 61.6307 41.5253 61.8307L39.7253 62.1307C38.9253 62.3307 38.2253 62.0307 37.8253 61.5307C37.3253 60.8307 37.2253 60.0307 37.5253 59.1307C37.7253 58.4307 38.2253 58.0307 39.0253 57.9307C39.2253 57.9307 39.4253 57.8307 39.8253 57.8307H39.9253C41.6253 57.5307 45.5253 56.8307 46.7253 56.7307C46.8253 56.7307 46.8253 56.7307 46.9253 56.7307H47.0253C48.2253 56.7307 48.4253 57.2307 48.5253 57.8307C48.8253 59.0307 48.1253 60.4307 47.2253 60.7307ZM48.0253 55.3307C47.5253 55.4307 47.0253 55.5307 46.5253 55.6307C45.2253 55.8307 43.8253 56.1307 42.4253 56.3307L41.5253 56.4307C40.8253 56.5307 40.1253 56.6307 39.4253 56.7307H39.3253C39.2253 56.7307 39.2253 56.7307 39.1253 56.7307H38.9253C38.3253 56.8307 37.6253 56.9307 37.0253 57.0307C36.2253 57.1307 35.6253 56.9307 35.2253 56.4307C34.7253 55.9307 34.5253 54.9307 34.7253 54.1307C34.8253 53.5307 35.2253 53.1307 35.8253 52.8307C36.0253 52.7307 36.1253 52.7307 36.3253 52.7307C38.2253 52.4307 40.0253 52.2307 41.9253 51.9307C43.7253 51.6307 45.6253 51.4307 47.4253 51.1307C47.6253 51.1307 47.7253 51.1307 47.9253 51.1307C48.0253 51.1307 48.1253 51.1307 48.1253 51.1307C48.7253 51.1307 49.4253 51.4307 49.6253 52.3307C50.1253 53.9307 49.3253 55.0307 48.0253 55.3307ZM50.3253 47.5307C50.2253 49.2307 49.7253 49.8307 48.1253 50.1307H48.0253C46.2253 50.4307 44.3253 50.6307 42.5253 50.9307L40.4253 51.2307C38.6253 51.5307 36.9253 51.7307 35.1253 52.0307C35.0253 52.0307 34.8253 52.0307 34.7253 52.0307C34.1253 52.0307 33.5253 51.8307 33.2253 51.3307C32.8253 50.8307 32.7253 50.2307 32.8253 49.4307C32.9253 48.5307 33.5253 47.9307 34.4253 47.7307C34.6253 47.7307 34.8253 47.6307 35.0253 47.6307C35.4253 47.5307 35.7253 47.5307 36.0253 47.4307H36.1253C36.3253 47.4307 36.4253 47.4307 36.6253 47.4307C37.8253 47.2307 39.0253 47.1307 40.2253 46.9307L43.2253 46.5307C44.4253 46.3307 45.7253 46.2307 46.9253 46.0307C47.1253 46.0307 47.3253 45.9307 47.5253 45.8307H47.6253C47.7253 45.8307 47.9253 45.8307 48.0253 45.8307C48.2253 45.8307 48.4253 45.8307 48.6253 45.8307C48.8253 45.8307 49.0253 45.9307 49.2253 45.9307C50.1253 46.2307 50.3253 46.9307 50.3253 47.5307Z" fill="white"/>
</svg>
