<svg width="54" height="45" viewBox="0 0 54 45" fill="none" xmlns="http://www.w3.org/2000/svg">
<path d="M53.3544 0.630859H0.6456C0.47448 0.630859 0.31036 0.699718 0.189304 0.822303C0.0682476 0.944889 0.000159033 1.11117 0 1.28462V43.9765C0 44.15 0.0680184 44.3165 0.189092 44.4392C0.310165 44.5619 0.474376 44.6309 0.6456 44.6309H53.3544C53.5256 44.6309 53.6898 44.5619 53.8109 44.4392C53.932 44.3165 54 44.15 54 43.9765V1.28462C53.9998 1.11117 53.9318 0.944889 53.8107 0.822303C53.6896 0.699718 53.5255 0.630859 53.3544 0.630859ZM52.7094 1.93898V9.22762H1.2906V1.93898H52.7094ZM1.2906 43.3221V10.5363H52.7106V43.3221H1.2906ZM48.738 7.92801C49.1949 7.92801 49.6415 7.79069 50.0214 7.53342C50.4012 7.27614 50.6973 6.91047 50.8722 6.48265C51.047 6.05482 51.0927 5.58405 51.0036 5.12987C50.9145 4.67569 50.6945 4.2585 50.3714 3.93105C50.0484 3.6036 49.6368 3.38061 49.1887 3.29027C48.7406 3.19993 48.2761 3.24629 47.854 3.42351C47.4319 3.60072 47.0711 3.90082 46.8173 4.28585C46.5635 4.67089 46.428 5.12357 46.428 5.58664C46.4296 6.20684 46.6736 6.80113 47.1065 7.23939C47.5395 7.67765 48.1261 7.92416 48.738 7.92497V7.92801ZM48.738 4.5534C48.9397 4.5534 49.1369 4.61404 49.3047 4.72764C49.4724 4.84124 49.6032 5.0027 49.6804 5.19162C49.7576 5.38053 49.7778 5.5884 49.7384 5.78895C49.699 5.98949 49.6019 6.17371 49.4593 6.31829C49.3166 6.46288 49.1349 6.56135 48.937 6.60124C48.7391 6.64113 48.534 6.62065 48.3477 6.5424C48.1613 6.46415 48.002 6.33164 47.8899 6.16163C47.7778 5.99161 47.718 5.79173 47.718 5.58725C47.7176 5.45123 47.7437 5.31647 47.7948 5.19068C47.8459 5.0649 47.9209 4.95057 48.0157 4.85424C48.1104 4.75792 48.223 4.6815 48.347 4.62935C48.4709 4.5772 48.6038 4.55036 48.738 4.55036V4.5534ZM39.3426 7.92497C39.7995 7.92497 40.2461 7.78765 40.626 7.53038C41.0058 7.2731 41.3019 6.90743 41.4768 6.4796C41.6516 6.05178 41.6973 5.58101 41.6082 5.12683C41.5191 4.67265 41.2991 4.25546 40.976 3.92801C40.653 3.60056 40.2414 3.37757 39.7933 3.28723C39.3452 3.19689 38.8807 3.24325 38.4586 3.42047C38.0365 3.59768 37.6757 3.89778 37.4219 4.28281C37.1681 4.66785 37.0326 5.12053 37.0326 5.5836C37.0332 6.20437 37.2768 6.79953 37.7099 7.23849C38.143 7.67744 38.7301 7.92432 39.3426 7.92497ZM39.3426 4.55036C39.5443 4.55036 39.7415 4.611 39.9093 4.7246C40.077 4.8382 40.2078 4.99966 40.285 5.18858C40.3622 5.37749 40.3824 5.58536 40.343 5.78591C40.3036 5.98645 40.2065 6.17067 40.0639 6.31525C39.9212 6.45984 39.7395 6.5583 39.5416 6.5982C39.3437 6.63809 39.1386 6.61761 38.9523 6.53936C38.7659 6.46111 38.6066 6.3286 38.4945 6.15859C38.3824 5.98857 38.3226 5.78869 38.3226 5.58421C38.3226 5.31002 38.4301 5.04705 38.6214 4.85317C38.8126 4.65929 39.0721 4.55036 39.3426 4.55036ZM29.9472 7.92497C30.404 7.92485 30.8506 7.78743 31.2304 7.53008C31.6102 7.27274 31.9062 6.90702 32.0809 6.47918C32.2557 6.05134 32.3013 5.58059 32.2121 5.12645C32.1229 4.67231 31.9029 4.25518 31.5798 3.9278C31.2567 3.60041 30.8451 3.37748 30.397 3.28718C29.949 3.19689 29.4845 3.24329 29.0625 3.42052C28.6404 3.59775 28.2797 3.89785 28.0259 4.28287C27.7721 4.6679 27.6366 5.12055 27.6366 5.5836C27.6372 6.20448 27.8809 6.79973 28.3141 7.2387C28.7473 7.67767 29.3346 7.92448 29.9472 7.92497ZM29.9472 4.55036C30.1489 4.55036 30.3461 4.611 30.5139 4.7246C30.6816 4.8382 30.8124 4.99966 30.8896 5.18858C30.9668 5.37749 30.987 5.58536 30.9476 5.78591C30.9082 5.98645 30.8111 6.17067 30.6685 6.31525C30.5258 6.45984 30.3441 6.5583 30.1462 6.5982C29.9483 6.63809 29.7432 6.61761 29.5569 6.53936C29.3705 6.46111 29.2112 6.3286 29.0991 6.15859C28.987 5.98857 28.9272 5.78869 28.9272 5.58421C28.9272 5.31002 29.0347 5.04705 29.226 4.85317C29.4172 4.65929 29.6767 4.55036 29.9472 4.55036ZM6.2898 7.73097H19.5858C19.6706 7.73097 19.7545 7.71404 19.8328 7.68115C19.9111 7.64825 19.9822 7.60004 20.0421 7.53927C20.102 7.4785 20.1495 7.40636 20.1819 7.32697C20.2143 7.24758 20.2309 7.16251 20.2308 7.0766V4.09182C20.2308 3.91843 20.1628 3.75215 20.0419 3.62954C19.9209 3.50694 19.7569 3.43806 19.5858 3.43806H6.2898C6.11874 3.43806 5.95468 3.50694 5.83372 3.62954C5.71276 3.75215 5.6448 3.91843 5.6448 4.09182V7.07478C5.64448 7.16084 5.66093 7.24611 5.69321 7.32571C5.72548 7.40531 5.77294 7.47766 5.83287 7.53863C5.89279 7.59959 5.964 7.64797 6.04241 7.68097C6.12083 7.71398 6.2049 7.73097 6.2898 7.73097ZM6.9354 4.74801H18.9402V6.42285H6.9354V4.74801ZM20.7072 30.3844C20.7072 30.4703 20.6905 30.5554 20.658 30.6347C20.6256 30.7141 20.578 30.7862 20.5181 30.8469C20.4581 30.9076 20.3869 30.9558 20.3086 30.9886C20.2303 31.0214 20.1464 31.0383 20.0616 31.0382H12.0216C11.9352 31.0408 11.8492 31.0259 11.7686 30.9942C11.688 30.9626 11.6145 30.9148 11.5524 30.8538C11.4904 30.7928 11.4411 30.7198 11.4074 30.6391C11.3737 30.5584 11.3563 30.4717 11.3563 30.3841C11.3563 30.2965 11.3737 30.2098 11.4074 30.1291C11.4411 30.0484 11.4904 29.9754 11.5524 29.9144C11.6145 29.8534 11.688 29.8057 11.7686 29.774C11.8492 29.7423 11.9352 29.7274 12.0216 29.7301H20.0616C20.2328 29.7301 20.397 29.799 20.5181 29.9217C20.6392 30.0444 20.7072 30.2109 20.7072 30.3844ZM5.9298 30.3844C5.9298 30.2109 5.99782 30.0444 6.11889 29.9217C6.23997 29.799 6.40418 29.7301 6.5754 29.7301H9.2088C9.2952 29.7274 9.38124 29.7423 9.46184 29.774C9.54243 29.8057 9.61593 29.8534 9.67798 29.9144C9.74002 29.9754 9.78935 30.0484 9.82304 30.1291C9.85672 30.2098 9.87408 30.2965 9.87408 30.3841C9.87408 30.4717 9.85672 30.5584 9.82304 30.6391C9.78935 30.7198 9.74002 30.7928 9.67798 30.8538C9.61593 30.9148 9.54243 30.9626 9.46184 30.9942C9.38124 31.0259 9.2952 31.0408 9.2088 31.0382H6.5754C6.49065 31.0383 6.40671 31.0214 6.32838 30.9886C6.25006 30.9558 6.17889 30.9076 6.11893 30.8469C6.05897 30.7862 6.01141 30.7141 5.97896 30.6347C5.9465 30.5554 5.9298 30.4703 5.9298 30.3844ZM5.9298 35.221C5.9298 35.0475 5.99782 34.881 6.11889 34.7583C6.23997 34.6356 6.40418 34.5666 6.5754 34.5666H14.6154C14.7831 34.5718 14.9423 34.643 15.0591 34.7651C15.176 34.8872 15.2413 35.0506 15.2413 35.2207C15.2413 35.3908 15.176 35.5542 15.0591 35.6763C14.9423 35.7984 14.7831 35.8696 14.6154 35.8748H6.5754C6.4905 35.8748 6.40641 35.8579 6.32797 35.825C6.24953 35.7921 6.17827 35.7438 6.11829 35.6829C6.05831 35.6219 6.01078 35.5496 5.97844 35.4701C5.94609 35.3905 5.92956 35.3052 5.9298 35.2192V35.221ZM20.7072 35.221C20.7072 35.3069 20.6905 35.392 20.658 35.4713C20.6256 35.5507 20.578 35.6228 20.5181 35.6835C20.4581 35.7442 20.3869 35.7924 20.3086 35.8252C20.2303 35.858 20.1464 35.8748 20.0616 35.8748H17.4282C17.3418 35.8774 17.2558 35.8625 17.1752 35.8308C17.0946 35.7992 17.0211 35.7514 16.959 35.6904C16.897 35.6294 16.8477 35.5564 16.814 35.4757C16.7803 35.395 16.7629 35.3083 16.7629 35.2207C16.7629 35.1331 16.7803 35.0464 16.814 34.9657C16.8477 34.885 16.897 34.812 16.959 34.751C17.0211 34.69 17.0946 34.6423 17.1752 34.6106C17.2558 34.5789 17.3418 34.564 17.4282 34.5666H20.0616C20.2325 34.5666 20.3965 34.6353 20.5175 34.7577C20.6385 34.88 20.7067 35.0459 20.7072 35.2192V35.221ZM20.7072 40.0576C20.7072 40.1435 20.6905 40.2286 20.658 40.3079C20.6256 40.3873 20.578 40.4594 20.5181 40.5201C20.4581 40.5808 20.3869 40.6289 20.3086 40.6618C20.2303 40.6946 20.1464 40.7114 20.0616 40.7114H12.0216C11.9352 40.714 11.8492 40.6991 11.7686 40.6674C11.688 40.6357 11.6145 40.588 11.5524 40.527C11.4904 40.466 11.4411 40.393 11.4074 40.3123C11.3737 40.2316 11.3563 40.1449 11.3563 40.0573C11.3563 39.9697 11.3737 39.883 11.4074 39.8023C11.4411 39.7216 11.4904 39.6486 11.5524 39.5876C11.6145 39.5266 11.688 39.4788 11.7686 39.4472C11.8492 39.4155 11.9352 39.4006 12.0216 39.4032H20.0616C20.2328 39.4032 20.397 39.4722 20.5181 39.5949C20.6392 39.7176 20.7072 39.884 20.7072 40.0576ZM9.8544 40.0576C9.8544 40.1435 9.8377 40.2286 9.80525 40.3079C9.77279 40.3873 9.72523 40.4594 9.66527 40.5201C9.60531 40.5808 9.53414 40.6289 9.45582 40.6618C9.37749 40.6946 9.29355 40.7114 9.2088 40.7114H6.5754C6.489 40.714 6.40296 40.6991 6.32236 40.6674C6.24177 40.6357 6.16827 40.588 6.10622 40.527C6.04418 40.466 5.99485 40.393 5.96116 40.3123C5.92748 40.2316 5.91012 40.1449 5.91012 40.0573C5.91012 39.9697 5.92748 39.883 5.96116 39.8023C5.99485 39.7216 6.04418 39.6486 6.10622 39.5876C6.16827 39.5266 6.24177 39.4788 6.32236 39.4472C6.40296 39.4155 6.489 39.4006 6.5754 39.4032H9.2088C9.38002 39.4032 9.54424 39.4722 9.66531 39.5949C9.78638 39.7176 9.8544 39.884 9.8544 40.0576ZM13.32 13.1854C11.8585 13.1851 10.4297 13.624 9.21434 14.4468C7.99897 15.2695 7.05163 16.4391 6.49211 17.8076C5.9326 19.1761 5.78605 20.682 6.071 22.135C6.35595 23.5879 7.05961 24.9225 8.09296 25.9701C9.12632 27.0176 10.443 27.7311 11.8764 28.0201C13.3098 28.3092 14.7956 28.1609 16.1458 27.594C17.4961 27.0271 18.6502 26.0671 19.4621 24.8353C20.274 23.6036 20.7073 22.1555 20.7072 20.6741C20.705 18.6889 19.926 16.7856 18.5412 15.3817C17.1563 13.9779 15.2786 13.188 13.32 13.1854ZM19.38 20.0204H13.962V14.5288C15.3478 14.6802 16.6408 15.3074 17.6263 16.3063C18.6119 17.3052 19.2307 18.6158 19.38 20.0204ZM13.32 26.8547C11.7578 26.8564 10.2545 26.2502 9.12038 25.1612C7.98625 24.0723 7.30778 22.5836 7.22496 21.0024C7.14214 19.4212 7.66129 17.8681 8.67529 16.6635C9.68929 15.4589 11.1208 14.6948 12.6744 14.5288V20.6741C12.6744 20.8477 12.7424 21.0141 12.8635 21.1369C12.9846 21.2596 13.1488 21.3285 13.32 21.3285H19.38C19.219 22.8445 18.5115 24.247 17.3931 25.2668C16.2748 26.2866 14.8244 26.8521 13.32 26.8547ZM29.2362 32.1262H25.5966C25.5118 32.1261 25.4279 32.1429 25.3496 32.1757C25.2713 32.2086 25.2001 32.2567 25.1401 32.3174C25.0802 32.3781 25.0326 32.4502 25.0002 32.5296C24.9677 32.6089 24.951 32.694 24.951 32.7799V40.0515C24.951 40.1374 24.9677 40.2225 25.0002 40.3018C25.0326 40.3812 25.0802 40.4533 25.1401 40.514C25.2001 40.5747 25.2713 40.6229 25.3496 40.6557C25.4279 40.6885 25.5118 40.7054 25.5966 40.7053H29.235C29.4061 40.7053 29.5701 40.6364 29.6911 40.5138C29.812 40.3912 29.88 40.2249 29.88 40.0515V32.7799C29.88 32.6065 29.812 32.4402 29.6911 32.3176C29.5701 32.195 29.4061 32.1262 29.235 32.1262H29.2362ZM28.5894 39.3971H26.2416V33.4373H28.5894V39.3971ZM35.5848 26.8085H31.9464C31.7752 26.8085 31.611 26.8775 31.4899 27.0002C31.3688 27.1229 31.3008 27.2893 31.3008 27.4629V40.0515C31.3008 40.1374 31.3175 40.2225 31.35 40.3018C31.3824 40.3812 31.43 40.4533 31.4899 40.514C31.5499 40.5747 31.6211 40.6229 31.6994 40.6557C31.7777 40.6885 31.8616 40.7054 31.9464 40.7053H35.5848C35.6696 40.7054 35.7535 40.6885 35.8318 40.6557C35.9101 40.6229 35.9813 40.5747 36.0413 40.514C36.1012 40.4533 36.1488 40.3812 36.1812 40.3018C36.2137 40.2225 36.2304 40.1374 36.2304 40.0515V27.4629C36.2302 27.2894 36.1622 27.1232 36.0411 27.0006C35.92 26.878 35.7559 26.8085 35.5848 26.8085ZM34.9392 39.3971H32.5914V28.1173H34.9392V39.3971ZM41.9346 29.4911H38.2962C38.125 29.4911 37.9608 29.56 37.8397 29.6827C37.7186 29.8054 37.6506 29.9719 37.6506 30.1454V40.0515C37.6506 40.1374 37.6673 40.2225 37.6998 40.3018C37.7322 40.3812 37.7798 40.4533 37.8397 40.514C37.8997 40.5747 37.9709 40.6229 38.0492 40.6557C38.1275 40.6885 38.2114 40.7054 38.2962 40.7053H41.9346C42.0194 40.7054 42.1033 40.6885 42.1816 40.6557C42.2599 40.6229 42.3311 40.5747 42.3911 40.514C42.451 40.4533 42.4986 40.3812 42.531 40.3018C42.5635 40.2225 42.5802 40.1374 42.5802 40.0515V30.1454C42.5802 29.9719 42.5122 29.8054 42.3911 29.6827C42.27 29.56 42.1058 29.4911 41.9346 29.4911ZM41.289 39.3971H38.94V30.7998H41.2872L41.289 39.3971ZM48.2844 25.5661H44.646C44.4751 25.5661 44.3112 25.6348 44.1901 25.7571C44.0691 25.8794 44.0009 26.0454 44.0004 26.2186V40.0515C44.0004 40.1374 44.0171 40.2225 44.0496 40.3018C44.082 40.3812 44.1296 40.4533 44.1895 40.514C44.2495 40.5747 44.3207 40.6229 44.399 40.6557C44.4773 40.6885 44.5613 40.7054 44.646 40.7053H48.2844C48.3692 40.7054 48.4531 40.6885 48.5314 40.6557C48.6097 40.6229 48.6809 40.5747 48.7409 40.514C48.8008 40.4533 48.8484 40.3812 48.8808 40.3018C48.9133 40.2225 48.93 40.1374 48.93 40.0515V26.2186C48.9295 26.0454 48.8613 25.8794 48.7403 25.7571C48.6193 25.6348 48.4553 25.5661 48.2844 25.5661ZM47.64 39.3971H45.2916V26.8742H47.64V39.3971ZM47.208 16.0571C46.7547 16.0568 46.3091 16.1766 45.9156 16.4047C45.522 16.6328 45.1941 16.9611 44.9644 17.3573C44.7347 17.7534 44.6112 18.2035 44.606 18.663C44.6009 19.1225 44.7144 19.5753 44.9352 19.9766L41.2014 23.5647C40.7659 23.2857 40.2582 23.1447 39.7432 23.1595C39.2282 23.1743 38.7292 23.3444 38.31 23.648L36.0552 21.7183C36.2274 21.3603 36.3167 20.9672 36.3162 20.5689C36.3165 20.1723 36.2285 19.7807 36.0588 19.4233C35.8891 19.0659 35.6421 18.7519 35.3361 18.5046C35.0301 18.2574 34.673 18.0833 34.2914 17.9953C33.9098 17.9072 33.5136 17.9076 33.1322 17.9963C32.7508 18.085 32.394 18.2597 32.0884 18.5075C31.7828 18.7553 31.5363 19.0697 31.3672 19.4274C31.1982 19.7851 31.1108 20.1769 31.1118 20.5735C31.1128 20.9702 31.202 21.3615 31.3728 21.7183L29.1198 23.6492C28.6032 23.2773 27.9705 23.1092 27.3403 23.1766C26.7101 23.244 26.1259 23.5421 25.6972 24.0151C25.2686 24.4881 25.025 25.1034 25.0121 25.7456C24.9993 26.3877 25.2181 27.0125 25.6276 27.5027C26.037 27.9929 26.6088 28.3148 27.2358 28.408C27.8627 28.5012 28.5017 28.3592 29.0327 28.0088C29.5637 27.6584 29.9503 27.1235 30.1199 26.5047C30.2895 25.8859 30.2304 25.2256 29.9538 24.6478L32.2074 22.7169C32.6472 23.0349 33.174 23.2058 33.7143 23.2058C34.2546 23.2058 34.7814 23.0349 35.2212 22.7169L37.4742 24.6478C37.2789 25.0556 37.1907 25.5075 37.2179 25.9599C37.2451 26.4123 37.3869 26.85 37.6296 27.2308C37.8723 27.6115 38.2077 27.9224 38.6035 28.1335C38.9992 28.3445 39.442 28.4487 39.889 28.4358C40.336 28.423 40.7722 28.2936 41.1556 28.0601C41.5389 27.8267 41.8564 27.497 42.0774 27.103C42.2984 26.7089 42.4156 26.2638 42.4174 25.8105C42.4193 25.3572 42.3059 24.9111 42.0882 24.5152L45.822 20.9271C46.1633 21.1448 46.5499 21.2791 46.9512 21.3193C47.3525 21.3596 47.7575 21.3048 48.1343 21.1591C48.5111 21.0135 48.8493 20.7811 49.1223 20.4803C49.3953 20.1795 49.5956 19.8184 49.7073 19.4257C49.819 19.0329 49.8391 18.6193 49.766 18.2173C49.6929 17.8153 49.5286 17.4361 49.2861 17.1095C49.0436 16.783 48.7295 16.518 48.3687 16.3356C48.0078 16.1531 47.6101 16.0582 47.2068 16.0583L47.208 16.0571ZM27.6138 27.1254C27.3546 27.1255 27.1013 27.0477 26.8857 26.902C26.6701 26.7562 26.5019 26.5489 26.4025 26.3063C26.3031 26.0638 26.2768 25.7967 26.3271 25.539C26.3773 25.2813 26.5017 25.0445 26.6847 24.8585C26.8677 24.6724 27.1009 24.5455 27.355 24.4938C27.6091 24.4421 27.8726 24.4678 28.1123 24.5678C28.3519 24.6678 28.557 24.8376 28.7015 25.0556C28.846 25.2737 28.9235 25.5302 28.9242 25.7929C28.9244 25.9676 28.8906 26.1407 28.8247 26.3021C28.7589 26.4636 28.6623 26.6103 28.5405 26.7339C28.4187 26.8576 28.2741 26.9557 28.1149 27.0226C27.9556 27.0896 27.785 27.1241 27.6126 27.1241L27.6138 27.1254ZM32.4042 20.5683C32.4042 20.3055 32.4811 20.0486 32.6251 19.8301C32.7692 19.6116 32.9739 19.4413 33.2135 19.3407C33.4531 19.2401 33.7167 19.2138 33.971 19.2651C34.2253 19.3163 34.4589 19.4429 34.6422 19.6287C34.8256 19.8146 34.9504 20.0513 35.001 20.3091C35.0516 20.5669 35.0256 20.834 34.9264 21.0768C34.8272 21.3196 34.6591 21.5272 34.4436 21.6732C34.228 21.8192 33.9745 21.8971 33.7152 21.8971C33.5429 21.8971 33.3722 21.8627 33.213 21.7959C33.0538 21.729 32.9092 21.6311 32.7873 21.5076C32.6655 21.3841 32.5688 21.2375 32.5029 21.0761C32.4369 20.9147 32.403 20.7418 32.403 20.5671L32.4042 20.5683ZM39.8154 27.1241C39.5562 27.124 39.3029 27.0461 39.0875 26.9001C38.872 26.7541 38.7041 26.5467 38.6049 26.304C38.5056 26.0613 38.4796 25.7943 38.5301 25.5366C38.5806 25.279 38.7052 25.0423 38.8884 24.8564C39.0715 24.6705 39.3049 24.5438 39.559 24.4923C39.8131 24.4408 40.0766 24.4668 40.3162 24.5671C40.5557 24.6673 40.7606 24.8372 40.9049 25.0554C41.0493 25.2736 41.1265 25.5302 41.127 25.7929C41.1272 25.9676 41.0934 26.1407 41.0275 26.3021C40.9617 26.4636 40.8651 26.6103 40.7433 26.7339C40.6215 26.8576 40.4769 26.9557 40.3176 27.0226C40.1584 27.0896 39.9878 27.1241 39.8154 27.1241ZM47.2068 20.0234C46.9474 20.0236 46.6937 19.9457 46.478 19.7997C46.2622 19.6537 46.094 19.4461 45.9946 19.2032C45.8952 18.9603 45.8692 18.693 45.9197 18.435C45.9703 18.1771 46.0951 17.9402 46.2785 17.7542C46.462 17.5682 46.6957 17.4415 46.9501 17.3902C47.2045 17.3389 47.4683 17.3652 47.708 17.4658C47.9477 17.5664 48.1526 17.7367 48.2967 17.9554C48.4409 18.174 48.5178 18.4311 48.5178 18.694C48.5173 19.0464 48.3791 19.3841 48.1333 19.6333C47.8876 19.8825 47.5544 20.0228 47.2068 20.0234Z" fill="white"/>
</svg>
