<svg width="63" height="63" viewBox="0 0 63 63" fill="none" xmlns="http://www.w3.org/2000/svg">
<path d="M44.5495 48.7028C44.4084 48.6077 44.2461 48.5488 44.0768 48.5311C43.9076 48.5134 43.7366 48.5376 43.5789 48.6014C42.5713 49.0102 41.4845 49.1867 40.3993 49.1179C36.7332 48.8945 33.7401 45.8468 33.5849 42.1789C33.5317 40.9629 33.785 39.753 34.3214 38.6602C34.8578 37.5675 35.6601 36.6268 36.6549 35.9245C37.6496 35.2223 38.8049 34.7809 40.0147 34.6409C41.2245 34.5009 42.4501 34.6667 43.5791 35.1232C43.7369 35.187 43.9078 35.2111 44.077 35.1934C44.2462 35.1756 44.4085 35.1167 44.5496 35.0216C44.6906 34.9266 44.8062 34.7984 44.8861 34.6483C44.966 34.4982 45.0078 34.3308 45.0078 34.1607V24.2086C45.0078 23.9332 44.8984 23.6691 44.7035 23.4743C44.5087 23.2796 44.2444 23.1702 43.9688 23.1702H37.5021C37.8133 21.8017 37.8122 20.3808 37.4988 19.0129C37.1854 17.645 36.5678 16.3652 35.6918 15.2684C34.8158 14.1717 33.7039 13.2861 32.4387 12.6775C31.1735 12.0689 29.7873 11.7529 28.3832 11.7529C26.979 11.7529 25.5929 12.0689 24.3276 12.6775C23.0624 13.2861 21.9505 14.1717 21.0746 15.2684C20.1986 16.3652 19.581 17.645 19.2676 19.0129C18.9542 20.3808 18.953 21.8017 19.2642 23.1702H11.7581C11.4825 23.1702 11.2182 23.2796 11.0234 23.4743C10.8285 23.6691 10.719 23.9332 10.719 24.2086V34.593H7.60188C6.49996 34.5942 5.44353 35.0322 4.66436 35.811C3.88518 36.5897 3.4469 37.6455 3.44566 38.7467V47.6626L0.632812 50.4737L2.1023 51.9423L5.21946 48.827C5.31594 48.7305 5.39248 48.6161 5.44469 48.4901C5.49691 48.3641 5.52378 48.229 5.52377 48.0927V38.7467C5.52442 38.1961 5.74358 37.6682 6.13316 37.2789C6.52274 36.8895 7.05093 36.6705 7.60188 36.6699H10.719V39.3551L8.94525 41.1277L10.4147 42.5963L15.0905 37.9234C15.309 37.705 15.6053 37.5823 15.9143 37.5823C16.2233 37.5823 16.5197 37.705 16.7382 37.9234C16.9567 38.1417 17.0794 38.4379 17.0794 38.7467C17.0794 39.0555 16.9567 39.3517 16.7382 39.5701L12.0624 44.243C11.9659 44.3395 11.8894 44.454 11.8372 44.58C11.7849 44.7059 11.7581 44.841 11.7581 44.9774C11.7581 45.1137 11.7849 45.2488 11.8372 45.3748C11.8894 45.5008 11.9659 45.6152 12.0624 45.7117C12.9684 46.6193 13.4772 47.849 13.4772 49.1311C13.4772 50.4132 12.9684 51.6429 12.0624 52.5505L6.86714 57.7427L8.33662 59.2114L10.8836 56.6659C11.2442 58.3523 12.1723 59.8643 13.5132 60.9497C14.854 62.0351 16.5267 62.6285 18.2522 62.6308H43.9688C44.2444 62.6308 44.5087 62.5214 44.7035 62.3266C44.8984 62.1319 45.0078 61.8678 45.0078 61.5924V49.5634C45.0078 49.3934 44.9659 49.226 44.886 49.076C44.8061 48.9259 44.6905 48.7978 44.5495 48.7028ZM42.9297 60.5539H18.2522C16.8059 60.5523 15.4193 59.9774 14.3967 58.9553C13.374 57.9333 12.7988 56.5475 12.7972 55.1021V54.7533L13.5319 54.0192C14.7015 52.8497 15.4133 51.3002 15.5381 49.6514C15.6629 48.0026 15.1925 46.3637 14.2122 45.0317L18.2076 41.0387C18.8115 40.4299 19.1496 39.6069 19.1477 38.7496C19.1459 37.8924 18.8043 37.0708 18.1978 36.4646C17.5913 35.8584 16.7692 35.5171 15.9114 35.5152C15.0537 35.5134 14.2301 35.8512 13.621 36.4548L12.7972 37.2782V25.247H20.6771C20.8472 25.247 21.0147 25.2052 21.1649 25.1254C21.3151 25.0455 21.4434 24.93 21.5385 24.789C21.6336 24.6481 21.6926 24.4859 21.7103 24.3168C21.7281 24.1477 21.704 23.9768 21.6402 23.8192C21.1835 22.6909 21.0176 21.4661 21.1577 20.2571C21.2978 19.0481 21.7394 17.8936 22.442 16.8994C23.1446 15.9053 24.0857 15.1035 25.179 14.5674C26.2723 14.0313 27.4828 13.7781 28.6995 13.8311C32.3693 13.9862 35.4191 16.9776 35.6426 20.6413C35.7115 21.726 35.5349 22.8122 35.1258 23.8192C35.062 23.9768 35.0379 24.1477 35.0556 24.3168C35.0733 24.4859 35.1323 24.6481 35.2274 24.789C35.3225 24.93 35.4508 25.0455 35.601 25.1254C35.7512 25.2052 35.9187 25.247 36.0889 25.247H42.9297V32.7488C41.5605 32.4378 40.1387 32.4389 38.77 32.7521C37.4012 33.0653 36.1206 33.6825 35.0231 34.5579C33.9257 35.4334 33.0396 36.5446 32.4306 37.8091C31.8216 39.0736 31.5054 40.459 31.5054 41.8623C31.5054 43.2656 31.8216 44.651 32.4306 45.9155C33.0396 47.18 33.9257 48.2912 35.0231 49.1667C36.1206 50.0421 37.4012 50.6593 38.77 50.9725C40.1387 51.2857 41.5605 51.2868 42.9297 50.9758V60.5539Z" fill="#FFFAFA"/>
<path d="M59.5542 24.8172V15.9013C59.5529 14.8001 59.1147 13.7443 58.3355 12.9656C57.5563 12.1868 56.4999 11.7488 55.398 11.7476H52.2742C52.2049 9.79797 51.382 7.95115 49.9783 6.59549C48.5746 5.23984 46.6996 4.48098 44.7477 4.47852H15.9139C15.6383 4.47852 15.374 4.58792 15.1792 4.78267C14.9843 4.97741 14.8748 5.24154 14.8748 5.51695V14.1287C12.6922 13.6322 10.4037 13.9345 8.42503 14.9807C6.44636 16.0268 4.9087 17.7474 4.09127 19.8301C3.27384 21.9128 3.23086 24.2194 3.97012 26.331C4.70939 28.4426 6.18188 30.2193 8.1202 31.3384L9.16082 29.5406C7.56691 28.6197 6.3816 27.1291 5.84384 25.3694C5.30608 23.6096 5.45586 21.7115 6.26298 20.0578C7.07011 18.404 8.47456 17.1176 10.1932 16.4578C11.9118 15.798 13.8169 15.8139 15.5242 16.5023C15.682 16.5661 15.853 16.5902 16.0222 16.5725C16.1914 16.5547 16.3537 16.4958 16.4947 16.4007C16.6358 16.3056 16.7514 16.1774 16.8313 16.0273C16.9112 15.8772 16.9529 15.7097 16.9529 15.5397V6.55539H44.7477C46.1939 6.55701 47.5805 7.13191 48.6032 8.15397C49.6258 9.17603 50.2011 10.5618 50.2027 12.0072V14.4328L49.3788 13.6094C49.0782 13.3063 48.7205 13.0655 48.3265 12.9009C47.9324 12.7363 47.5097 12.651 47.0826 12.6501C46.6555 12.6492 46.2325 12.7326 45.8377 12.8955C45.443 13.0584 45.0843 13.2977 44.7823 13.5995C44.4803 13.9013 44.2409 14.2598 44.0779 14.6543C43.9149 15.0488 43.8315 15.4716 43.8324 15.8984C43.8333 16.3253 43.9186 16.7477 44.0833 17.1415C44.248 17.5354 44.4889 17.8928 44.7922 18.1933L48.7876 22.1863C47.8073 23.5183 47.337 25.1572 47.4618 26.806C47.5866 28.4548 48.2983 30.0043 49.4679 31.1738L50.2027 31.9079V40.8238H40.6197C40.9484 39.3687 40.9268 37.8564 40.5565 36.4113L38.5433 36.9289C38.9301 38.4365 38.8254 40.0281 38.2446 41.4721C38.1808 41.6297 38.1567 41.8006 38.1744 41.9697C38.1922 42.1388 38.2512 42.301 38.3463 42.442C38.4414 42.583 38.5697 42.6985 38.7199 42.7783C38.8701 42.8582 39.0377 42.8999 39.2078 42.8999H51.2417C51.5173 42.8999 51.7816 42.7905 51.9765 42.5958C52.1713 42.401 52.2808 42.1369 52.2808 41.8615V33.9848L54.6632 36.366L56.1327 34.8973L50.9374 29.7052C50.0314 28.7975 49.5226 27.5678 49.5226 26.2857C49.5226 25.0036 50.0314 23.7739 50.9374 22.8663C51.0339 22.7698 51.1105 22.6554 51.1627 22.5294C51.2149 22.4034 51.2418 22.2683 51.2418 22.132C51.2418 21.9956 51.2149 21.8605 51.1627 21.7346C51.1105 21.6086 51.0339 21.4941 50.9374 21.3977L46.2617 16.7247C46.1535 16.6166 46.0677 16.4882 46.0091 16.3469C45.9506 16.2057 45.9204 16.0542 45.9204 15.9013C45.9204 15.7484 45.9506 15.597 46.0091 15.4557C46.0677 15.3145 46.1535 15.1861 46.2617 15.078C46.3699 14.9699 46.4983 14.8841 46.6397 14.8256C46.781 14.7671 46.9325 14.7369 47.0855 14.7369C47.2385 14.7369 47.39 14.7671 47.5314 14.8256C47.6727 14.8841 47.8012 14.9699 47.9094 15.078L52.5851 19.7509L54.0546 18.2823L52.2808 16.5097V13.8245H55.398C55.9489 13.8251 56.4771 14.0441 56.8667 14.4335C57.2563 14.8228 57.4754 15.3507 57.4761 15.9013V25.2473C57.4761 25.3836 57.5029 25.5187 57.5551 25.6447C57.6074 25.7707 57.6839 25.8851 57.7804 25.9816L60.8975 29.0969L62.367 27.6283L59.5542 24.8172Z" fill="#FFFAFA"/>
<path d="M40.8514 0.324707H19.0312V2.40158H40.8514V0.324707Z" fill="#FFFAFA"/>
<path d="M45.0078 0.324707H42.9297V2.40158H45.0078V0.324707Z" fill="#FFFAFA"/>
</svg>
