<svg width="53" height="54" viewBox="0 0 53 54" fill="none" xmlns="http://www.w3.org/2000/svg">
<path d="M47.8711 12.0391V35.9745H53.0001V12.0391H47.8711ZM51.2904 34.2649H49.5808V13.7487H51.2904V34.2649Z" fill="white"/>
<path d="M41.0322 35.9742H46.1613V18.8774H41.0322V35.9742ZM42.7419 20.5871H44.4516V34.2645H42.7419V20.5871Z" fill="white"/>
<path d="M34.1936 35.1197V35.9746V37.8509L31.4034 38.4613L31.2837 38.9921C30.9435 40.5035 30.3459 41.9405 29.5099 43.2638L29.2192 43.7237L30.7631 46.1326L28.1097 48.786L25.7007 47.2413L25.2408 47.532C23.9175 48.368 22.4805 48.9647 20.9692 49.3058L20.4383 49.4254L19.828 52.2165H16.0744L15.464 49.4263L14.9332 49.3066C13.421 48.9655 11.984 48.3689 10.6615 47.5328L10.2016 47.2422L7.79271 48.7869L5.13929 46.1335L6.68398 43.7245L6.39334 43.2646C5.55731 41.9422 4.96063 40.5052 4.61955 38.993L4.49987 38.4621L1.70968 37.8509V34.0973L4.49987 33.487L4.61955 32.9561C4.96063 31.4439 5.55731 30.0069 6.39334 28.6845L6.68398 28.2246L5.13929 25.8157L7.79271 23.1622L10.2016 24.7069L10.6615 24.4163C11.984 23.5803 13.421 22.9836 14.9332 22.6425L15.464 22.5228L16.0744 19.7326H18.8065V18.0229H14.699L14.0245 21.1046C12.6918 21.456 11.4155 21.986 10.2179 22.6861L7.55763 20.9807L2.95774 25.5806L4.66315 28.2408C3.96389 29.4385 3.43389 30.7156 3.08169 32.0474L0 32.7219V39.2264L3.08169 39.9008C3.43303 41.2335 3.96303 42.5098 4.66315 43.7074L2.95774 46.3677L7.55763 50.9676L10.2179 49.2622C11.4155 49.9614 12.6926 50.4914 14.0245 50.8436L14.699 53.9253H21.2034L21.8779 50.8436C23.2097 50.4923 24.486 49.9623 25.6845 49.2622L28.3447 50.9676L32.9438 46.3677L31.2384 43.7074C31.9376 42.5089 32.4676 41.2327 32.8198 39.9008L35.9015 39.2255V35.9746H39.3209V24.0068H34.1918V35.1197H34.1936ZM35.9032 25.7165H37.6129V34.2649H35.9032V25.7165Z" fill="white"/>
<path d="M22.2258 0.925781H0V16.3129H22.2258V0.925781ZM20.5161 14.6032H1.70968V2.63546H20.5161V14.6032Z" fill="white"/>
<path d="M18.8064 11.1841H17.0967V12.8938H18.8064V11.1841Z" fill="white"/>
<path d="M15.3867 11.1841H3.41895V12.8938H15.3867V11.1841Z" fill="white"/>
<path d="M15.3867 7.76465H3.41895V9.47433H15.3867V7.76465Z" fill="white"/>
<path d="M18.8064 7.76465H17.0967V9.47433H18.8064V7.76465Z" fill="white"/>
<path d="M18.8064 4.34521H17.0967V6.05489H18.8064V4.34521Z" fill="white"/>
<path d="M15.3867 4.34521H3.41895V6.05489H15.3867V4.34521Z" fill="white"/>
<path d="M17.9517 27.4258C13.2381 27.4258 9.40332 31.2606 9.40332 35.9742C9.40332 40.6877 13.2381 44.5226 17.9517 44.5226C22.6653 44.5226 26.5001 40.6877 26.5001 35.9742C26.5001 31.2606 22.6653 27.4258 17.9517 27.4258ZM17.9517 42.8129C14.181 42.8129 11.113 39.7449 11.113 35.9742C11.113 32.2035 14.181 29.1355 17.9517 29.1355C21.7224 29.1355 24.7904 32.2035 24.7904 35.9742C24.7904 39.7449 21.7224 42.8129 17.9517 42.8129Z" fill="white"/>
<path d="M22.2263 18.0229H20.5166V19.7326H22.2263V18.0229Z" fill="white"/>
<path d="M17.9511 46.2326C12.2947 46.2326 7.69308 41.631 7.69308 35.9746C7.69308 30.3181 12.2947 25.7165 17.9511 25.7165H18.806V24.0068H17.9511C11.3518 24.0068 5.9834 29.3752 5.9834 35.9746C5.9834 42.5739 11.3518 47.9423 17.9511 47.9423C24.5505 47.9423 29.9189 42.5739 29.9189 35.9746H32.4834V27.4262H27.3544V35.9746H28.2092C28.2092 41.631 23.6076 46.2326 17.9511 46.2326ZM29.064 29.1359H30.7737V34.2649H29.064V29.1359Z" fill="white"/>
<path d="M22.2263 24.0068H20.5166V25.7165H22.2263V24.0068Z" fill="white"/>
<path d="M25.6452 24.0068H23.9355V25.7165H25.6452V24.0068Z" fill="white"/>
<path d="M25.6452 18.0229H23.9355V19.7326H25.6452V18.0229Z" fill="white"/>
<path d="M40.1775 0.630859L29.4014 10.329H34.1936V15.458H35.9033V8.61933H33.8568L40.1775 2.93038L46.4981 8.61933H44.4517V17.1677H46.1613V10.329H50.9536L40.1775 0.630859Z" fill="white"/>
<path d="M35.903 20.5874H34.1934V22.2971H35.903V20.5874Z" fill="white"/>
<path d="M35.903 17.168H34.1934V18.8776H35.903V17.168Z" fill="white"/>
</svg>
