<svg width="31" height="26" viewBox="0 0 31 26" fill="none" xmlns="http://www.w3.org/2000/svg">
<path d="M30.8359 3.26198C29.7317 3.77668 28.5415 4.11492 27.3082 4.27668C28.5702 3.49727 29.5453 2.26198 30.0042 0.776683C28.814 1.51198 27.4946 2.02668 26.1036 2.3208C24.9707 1.0561 23.379 0.320801 21.5721 0.320801C18.2021 0.320801 15.4487 3.14433 15.4487 6.62962C15.4487 7.12962 15.5061 7.61492 15.6065 8.0708C10.5013 7.8061 5.95544 5.29139 2.92963 1.48257C2.39904 2.40904 2.09789 3.49727 2.09789 4.64433C2.09789 6.83551 3.17341 8.77668 4.83689 9.87962C3.81873 9.87962 2.87227 9.58551 2.04053 9.14433V9.18845C2.04053 12.2473 4.1629 14.8061 6.97361 15.3796C6.07121 15.6329 5.12384 15.6681 4.20592 15.4826C4.59541 16.7362 5.35822 17.8332 6.38711 18.6192C7.416 19.4053 8.65924 19.8409 9.94206 19.8649C7.76753 21.6303 5.07207 22.5845 2.29865 22.5708C1.81108 22.5708 1.32351 22.5414 0.835938 22.4826C3.5606 24.2767 6.80152 25.3208 10.2719 25.3208C21.5721 25.3208 27.7814 15.7032 27.7814 7.36492C27.7814 7.08551 27.7814 6.8208 27.7671 6.54139C28.9717 5.65904 30.0042 4.54139 30.8359 3.26198Z" fill="#2D2C2C"/>
</svg>
